<?xml version="1.0" standalone="no"?>
<!DOCTYPE svg PUBLIC "-//W3C//DTD SVG 20010904//EN"
 "http://www.w3.org/TR/2001/REC-SVG-20010904/DTD/svg10.dtd">
<svg version="1.0" xmlns="http://www.w3.org/2000/svg"
 width="512.000000pt" height="512.000000pt" viewBox="0 0 512.000000 512.000000"
 preserveAspectRatio="xMidYMid meet">

<g transform="translate(0.000000,512.000000) scale(0.100000,-0.100000)"
fill="#000000" stroke="none">
<path d="M2270 4505 c-142 -29 -261 -96 -366 -208 -38 -41 -150 -175 -249
-300 l-180 -227 -145 0 c-161 -1 -174 -5 -190 -61 -13 -46 -13 -2702 0 -2748
18 -63 -15 -60 670 -60 685 0 652 -3 670 60 13 46 13 3452 0 3498 -5 18 -17
39 -27 47 -22 17 -97 16 -183 -1z m60 -740 l0 -595 -70 0 -70 0 0 578 0 578
48 16 c26 9 57 17 70 17 l22 1 0 -595z m-300 -75 l0 -520 -70 0 -70 0 0 443 1
442 65 78 c35 42 67 77 69 77 3 0 5 -234 5 -520z m-300 -185 l0 -335 -70 0
-70 0 0 253 0 252 66 83 c36 45 68 82 70 82 2 0 4 -151 4 -335z m-300 -110 l0
-225 -70 0 -70 0 0 225 0 225 70 0 70 0 0 -225z m900 -450 l0 -75 -520 0 -520
0 0 75 0 75 520 0 520 0 0 -75z m-900 -760 l0 -535 -70 0 -70 0 0 535 0 535
70 0 70 0 0 -535z m300 0 l0 -535 -70 0 -70 0 0 535 0 535 70 0 70 0 0 -535z
m300 0 l0 -535 -70 0 -70 0 0 535 0 535 70 0 70 0 0 -535z m300 0 l0 -535 -70
0 -70 0 0 535 0 535 70 0 70 0 0 -535z m-900 -910 l0 -225 -70 0 -70 0 0 225
0 225 70 0 70 0 0 -225z m300 0 l0 -225 -70 0 -70 0 0 225 0 225 70 0 70 0 0
-225z m300 0 l0 -225 -70 0 -70 0 0 225 0 225 70 0 70 0 0 -225z m300 0 l0
-225 -70 0 -70 0 0 225 0 225 70 0 70 0 0 -225z"/>
<path d="M2667 4506 c-10 -8 -22 -29 -27 -47 -13 -46 -13 -3452 0 -3498 18
-63 -15 -60 670 -60 685 0 652 -3 670 60 13 46 13 2702 0 2748 -16 56 -29 60
-190 61 l-145 0 -180 227 c-272 342 -339 407 -493 472 -104 44 -269 64 -305
37z m210 -163 l53 -17 0 -578 0 -578 -70 0 -70 0 0 595 c0 673 -10 609 87 578z
m293 -218 l60 -73 0 -441 0 -441 -70 0 -70 0 0 521 c0 333 3 518 10 514 5 -3
36 -39 70 -80z m304 -380 l56 -70 0 -252 0 -253 -70 0 -70 0 0 337 c0 293 2
335 14 323 8 -8 40 -46 70 -85z m356 -350 l0 -225 -70 0 -70 0 0 225 0 225 70
0 70 0 0 -225z m0 -450 l0 -75 -520 0 -520 0 0 75 0 75 520 0 520 0 0 -75z
m-900 -760 l0 -535 -70 0 -70 0 0 535 0 535 70 0 70 0 0 -535z m300 0 l0 -535
-70 0 -70 0 0 535 0 535 70 0 70 0 0 -535z m300 0 l0 -535 -70 0 -70 0 0 535
0 535 70 0 70 0 0 -535z m300 0 l0 -535 -70 0 -70 0 0 535 0 535 70 0 70 0 0
-535z m-900 -910 l0 -225 -70 0 -70 0 0 225 0 225 70 0 70 0 0 -225z m300 0
l0 -225 -70 0 -70 0 0 225 0 225 70 0 70 0 0 -225z m300 0 l0 -225 -70 0 -70
0 0 225 0 225 70 0 70 0 0 -225z m300 0 l0 -225 -70 0 -70 0 0 225 0 225 70 0
70 0 0 -225z"/>
<path d="M145 4355 c-22 -8 -59 -34 -82 -58 -87 -93 -84 -216 9 -309 26 -27
54 -48 63 -48 13 0 15 -167 15 -1645 l0 -1646 25 -24 24 -25 368 0 c404 1 396
-1 413 61 6 21 10 648 11 1654 l0 1620 47 30 c68 44 94 100 90 192 -4 92 -38
145 -117 186 l-55 27 -385 0 c-307 -1 -394 -4 -426 -15z m813 -155 c30 -28 30
-82 0 -110 -21 -19 -33 -20 -390 -20 l-369 0 -24 25 c-14 13 -25 36 -25 50 0
14 11 37 25 50 l24 25 369 0 c357 0 369 -1 390 -20z m-128 -355 l0 -75 -265 0
-265 0 0 75 0 75 265 0 265 0 0 -75z m0 -1660 l0 -1435 -265 0 -265 0 0 1435
0 1435 265 0 265 0 0 -1435z"/>
<path d="M4109 4342 c-80 -41 -113 -94 -117 -185 -4 -92 22 -148 90 -192 l47
-30 0 -1620 c1 -1006 5 -1633 11 -1654 17 -62 9 -60 413 -61 l368 0 24 25 25
24 0 1646 c0 1478 2 1645 15 1645 9 0 37 21 63 48 95 95 96 217 2 313 -29 30
-59 51 -85 58 -26 7 -176 11 -421 11 l-382 0 -53 -28z m836 -147 c14 -13 25
-36 25 -50 0 -14 -11 -37 -25 -50 l-24 -25 -369 0 c-357 0 -369 1 -390 20 -30
28 -30 82 0 110 21 19 33 20 390 20 l369 0 24 -25z m-125 -350 l0 -75 -265 0
-265 0 0 75 0 75 265 0 265 0 0 -75z m0 -1660 l0 -1435 -265 0 -265 0 0 1435
0 1435 265 0 265 0 0 -1435z"/>
</g>
</svg>
