<?xml version="1.0" standalone="no"?>
<!DOCTYPE svg PUBLIC "-//W3C//DTD SVG 20010904//EN"
 "http://www.w3.org/TR/2001/REC-SVG-20010904/DTD/svg10.dtd">
<svg version="1.0" xmlns="http://www.w3.org/2000/svg"
 width="512.000000pt" height="512.000000pt" viewBox="0 0 512.000000 512.000000"
 preserveAspectRatio="xMidYMid meet">

<g transform="translate(0.000000,512.000000) scale(0.100000,-0.100000)"
fill="#000000" stroke="none">
<path d="M695 4486 c-41 -18 -83 -69 -90 -109 -3 -18 -4 -874 -3 -1904 l3
-1872 21 -27 c11 -15 33 -37 48 -48 l27 -21 1899 0 1899 0 27 21 c15 11 37 33
48 48 21 27 21 38 21 526 0 488 0 499 -21 526 -11 15 -33 37 -48 48 -27 20
-41 21 -436 24 l-409 3 -3 399 c-3 385 -4 400 -24 426 -11 15 -33 37 -48 48
-27 20 -41 21 -446 24 l-419 3 -3 419 c-3 405 -4 419 -24 446 -11 15 -33 37
-48 48 -27 20 -41 21 -446 24 l-419 3 -3 429 c-3 415 -4 429 -24 456 -11 15
-33 37 -48 48 -27 20 -40 21 -514 23 -390 2 -493 0 -517 -11z m947 -575 c3
-416 4 -430 24 -457 11 -15 33 -37 48 -48 27 -20 41 -21 446 -24 l419 -3 3
-419 c3 -405 4 -419 24 -446 11 -15 33 -37 48 -48 27 -20 41 -21 446 -24 l419
-3 3 -399 c3 -385 4 -400 24 -426 11 -15 33 -37 48 -48 27 -20 41 -21 437 -24
l409 -3 0 -439 0 -440 -1840 0 -1840 0 0 1840 0 1840 440 0 439 0 3 -429z"/>
</g>
</svg>
