<?xml version="1.0" encoding="UTF-8"?>
<svg id="Camada_2" data-name="Camada 2" xmlns="http://www.w3.org/2000/svg" viewBox="0 0 2066.03 1013.59">
  <defs>
    <style>
      .cls-1 {
        fill: #1d71b8;
      }

      .cls-1, .cls-2, .cls-3 {
        stroke-width: 0px;
      }

      .cls-2 {
        fill: #f39200;
      }

      .cls-3 {
        fill: #1d1d1b;
      }
    </style>
  </defs>
  <g id="Camada_1-2" data-name="Camada 1">
    <path class="cls-3" d="M83.38,470.54H0V0h83.38v470.54ZM300.55,67.22H62.7V0h237.85v67.22ZM273.4,271.79H62.7v-66.9h210.71v66.9Z"/>
    <path class="cls-3" d="M530.97,0c35.98,0,66.68,5.39,92.1,16.16,25.42,10.78,44.87,26.72,58.33,47.83,13.46,21.12,20.2,47.08,20.2,77.88,0,23.7-4.31,44.49-12.93,62.37-8.62,17.88-20.84,32.91-36.68,45.08-15.83,12.18-34.53,21.6-56.07,28.28l-25.21,12.93h-148.98l-.65-66.9h110.52c19.17,0,35.17-3.34,47.99-10.02,12.81-6.68,22.4-15.83,28.76-27.47,6.35-11.63,9.53-24.88,9.53-39.75,0-24.13-6.95-43.36-20.84-57.69-13.9-14.33-35.93-21.49-66.09-21.49h-83.7v403.32h-83.38V0h167.08ZM521.27,259.51l87.58-.32,111.49,207.15v4.2h-89.19l-109.88-211.03Z"/>
    <path class="cls-3" d="M826.99,470.54h-87.58L916.51,0h55.59l-5.5,66.9-139.61,403.64ZM1076.81,362.92h-256.27v-67.22h256.27v67.22ZM942.37,66.9l-6.14-66.9h55.91l177.75,470.54h-87.58l-139.93-403.64Z"/>
    <path class="cls-3" d="M1596.47,470.54h-83.7l-207.48-331.57v331.57h-83.38V0h83.38l208.12,332.22V0h83.05v470.54Z"/>
    <path class="cls-3" d="M1774.86,470.54h-83.38V0h83.38v470.54ZM1867.28,227.84l-109.23,115.7-14.54-83.38,76.91-96.95L1955.51,0h101.8l-190.03,227.84ZM1814.61,249.17l57.52-56.88,193.9,278.25h-99.21l-152.21-221.37Z"/>
    <rect class="cls-2" x="0" y="542.1" width="949.27" height="35.36"/>
    <rect class="cls-1" x="949.27" y="542.1" width="1116.75" height="35.36"/>
    <path class="cls-3" d="M79.44,1009.08h-27.75v-244.01h26.59l1.16,50.52v193.5ZM60.94,864.98c1.23-19.09,5.86-36.54,13.88-52.32,8.01-15.79,19.2-28.42,33.54-37.89,14.34-9.47,31.69-14.21,52.04-14.21,24.36,0,43.86,6.65,58.51,19.96,14.64,13.31,21.97,35.37,21.97,66.19v162.38h-27.75v-161.47c0-16.24-2.54-28.98-7.63-38.23-5.09-9.25-12.22-15.82-21.39-19.73-9.17-3.91-19.78-5.86-31.8-5.86-14.18,0-26.17,2.82-35.96,8.46-9.8,5.64-17.73,12.93-23.82,21.88-6.09,8.94-10.57,18.53-13.42,28.75s-4.43,19.85-4.74,28.87l-13.42-6.76ZM222.14,851c1.08-15.63,5.67-30.37,13.76-44.2,8.09-13.83,19.35-25,33.76-33.49,14.42-8.49,31.49-12.74,51.23-12.74,17.42,0,32.22,3.04,44.41,9.13,12.18,6.09,21.47,15.71,27.87,28.87,6.4,13.16,9.6,30.33,9.6,51.53v158.99h-27.75v-159.22c0-17.29-2.54-30.71-7.63-40.26-5.09-9.54-12.22-16.24-21.39-20.07-9.17-3.84-19.78-5.75-31.8-5.75-12.18.15-22.78,2.33-31.8,6.54-9.02,4.21-16.58,9.62-22.67,16.24-6.09,6.62-10.72,13.8-13.88,21.54s-4.89,15.22-5.2,22.44l-18.5.45Z"/>
    <path class="cls-3" d="M569.99,1013.59c-21.74,0-41.05-5.15-57.93-15.45-16.88-10.3-30.14-24.43-39.78-42.4-9.64-17.96-14.45-38.6-14.45-61.91v-9.7c0-25.11,4.97-46.91,14.92-65.4,9.95-18.49,23.05-32.81,39.32-42.96,16.26-10.15,33.88-15.22,52.85-15.22,21.28,0,39.32,4.78,54.12,14.32,14.8,9.55,26.02,22.74,33.65,39.58,7.63,16.84,11.45,36.08,11.45,57.73v16.46h-189.42v-22.78h161.67v-3.16c-.31-13.68-3.12-26.54-8.44-38.56-5.32-12.03-13.23-21.84-23.71-29.43-10.49-7.59-23.59-11.39-39.32-11.39s-29.37,4.29-41.4,12.85c-12.03,8.57-21.36,20.41-27.98,35.52-6.63,15.11-9.95,32.59-9.95,52.44v9.7c0,18.04,3.58,34.36,10.75,48.94,7.17,14.58,17.23,26.24,30.18,34.96,12.95,8.72,27.83,13.08,44.64,13.08,14.8,0,27.91-2.67,39.32-8,11.41-5.34,21.66-13.79,30.76-25.37l17.58,12.85c-8.17,11.88-19.39,22.06-33.65,30.56-14.26,8.49-32.65,12.74-55.16,12.74Z"/>
    <path class="cls-3" d="M813.07,787.17h-125.59v-22.1h125.59v22.1ZM761.03,702.38v247.4c0,11.28,1.54,19.81,4.63,25.6,3.08,5.79,7.13,9.66,12.14,11.62,5.01,1.96,10.37,2.93,16.07,2.93,4.16,0,8.13-.26,11.91-.79,3.78-.53,7.2-1.02,10.29-1.47l1.16,22.32c-3.39,1.05-7.79,1.92-13.18,2.59-5.4.68-10.79,1.02-16.19,1.02-10.64,0-20.05-1.92-28.22-5.75-8.18-3.84-14.61-10.45-19.31-19.85-4.71-9.4-7.05-22.22-7.05-38.45v-247.17h27.75Z"/>
    <path class="cls-3" d="M1029.78,887.76h-54.35c-28.22,0-50.31,4.85-66.26,14.54-15.96,9.7-23.94,22.89-23.94,39.58,0,13.23,5.05,24.51,15.15,33.83,10.1,9.33,23.78,13.98,41.05,13.98,15.42,0,29.03-2.74,40.82-8.23,11.79-5.49,21.51-12.81,29.14-21.99,7.63-9.17,12.84-19.09,15.61-29.77l12.03,15.56c-2,7.52-5.67,15.22-10.99,23.11-5.32,7.89-12.22,15.26-20.7,22.1-8.48,6.84-18.47,12.4-29.95,16.69-11.49,4.28-24.48,6.43-38.97,6.43-16.34,0-30.57-3.01-42.67-9.02-12.11-6.01-21.51-14.24-28.22-24.69-6.71-10.45-10.06-22.29-10.06-35.52,0-24.05,10.21-42.96,30.64-56.72,20.43-13.76,48.3-20.64,83.61-20.64h57.59l.46,20.75ZM1022.84,839.49c0-17.44-5.55-31.2-16.65-41.27-11.1-10.07-27.06-15.11-47.88-15.11-12.95,0-24.48,2.22-34.57,6.65-10.1,4.44-18.04,10.38-23.82,17.82-5.78,7.44-8.67,15.75-8.67,24.92l-27.75-.23c0-12.33,4.05-23.94,12.14-34.84,8.1-10.9,19.35-19.77,33.77-26.61,14.41-6.84,31.11-10.26,50.07-10.26,17.88,0,33.66,2.93,47.3,8.8,13.65,5.86,24.36,14.66,32.15,26.39,7.78,11.73,11.68,26.46,11.68,44.2v117.95c0,8.42.66,17.14,1.97,26.16,1.31,9.02,3.2,16.46,5.67,22.33v2.71h-29.61c-1.85-5.41-3.27-12.21-4.28-20.41-1.01-8.19-1.5-15.97-1.5-23.34v-125.84ZM996.48,662.91h33.54l-53.66,62.92h-24.05l44.18-62.92Z"/>
    <path class="cls-3" d="M1155.37,1009.08h-27.52v-346.4h27.52v346.4Z"/>
    <path class="cls-3" d="M1229.38,694.48c0-5.11,1.66-9.43,4.97-12.97,3.31-3.53,7.9-5.3,13.76-5.3s10.71,1.77,14.11,5.3c3.39,3.53,5.09,7.86,5.09,12.97s-1.7,9.17-5.09,12.63c-3.39,3.46-8.09,5.19-14.11,5.19s-10.45-1.73-13.76-5.19c-3.32-3.46-4.97-7.67-4.97-12.63ZM1261.76,1009.08h-27.52v-244.01h27.52v244.01Z"/>
    <path class="cls-3" d="M1429.67,990.82c11.72,0,22.7-2.21,32.96-6.65,10.25-4.43,18.73-10.9,25.44-19.39,6.71-8.49,10.52-18.91,11.45-31.24h26.6c-.77,15.49-5.63,29.28-14.57,41.38-8.94,12.11-20.55,21.58-34.81,28.42-14.26,6.84-29.95,10.26-47.07,10.26-23.28,0-42.87-5.37-58.74-16.13-15.88-10.75-27.83-25.33-35.85-43.75-8.02-18.41-12.03-39.05-12.03-61.91v-9.47c0-23,4.05-43.67,12.14-62.02,8.09-18.34,20.04-32.88,35.85-43.64,15.8-10.75,35.27-16.13,58.4-16.13,17.88,0,33.96,3.53,48.22,10.6,14.26,7.07,25.71,17.07,34.35,29.99,8.63,12.93,13.33,28.27,14.11,46.01h-26.6c-.77-13.08-4.32-24.39-10.64-33.94-6.32-9.54-14.65-16.91-24.98-22.1-10.33-5.19-21.82-7.78-34.46-7.78-18.81,0-34.04,4.66-45.68,13.98-11.64,9.32-20.09,21.5-25.33,36.53-5.24,15.04-7.86,31.2-7.86,48.49v9.47c0,17.29,2.62,33.49,7.86,48.6,5.24,15.11,13.68,27.29,25.33,36.53,11.64,9.25,26.94,13.87,45.91,13.87Z"/>
    <path class="cls-3" d="M1740.75,887.76h-54.35c-28.22,0-50.3,4.85-66.26,14.54-15.96,9.7-23.94,22.89-23.94,39.58,0,13.23,5.05,24.51,15.15,33.83,10.1,9.33,23.78,13.98,41.05,13.98,15.42,0,29.03-2.74,40.82-8.23,11.8-5.49,21.51-12.81,29.14-21.99,7.63-9.17,12.84-19.09,15.61-29.77l12.03,15.56c-2,7.52-5.67,15.22-10.99,23.11-5.32,7.89-12.22,15.26-20.7,22.1-8.48,6.84-18.47,12.4-29.95,16.69-11.49,4.28-24.48,6.43-38.97,6.43-16.34,0-30.57-3.01-42.67-9.02-12.11-6.01-21.51-14.24-28.22-24.69-6.71-10.45-10.06-22.29-10.06-35.52,0-24.05,10.21-42.96,30.65-56.72,20.43-13.76,48.3-20.64,83.61-20.64h57.59l.46,20.75ZM1733.81,839.49c0-17.44-5.55-31.2-16.65-41.27-11.1-10.07-27.06-15.11-47.87-15.11-12.95,0-24.48,2.22-34.58,6.65-10.1,4.44-18.04,10.38-23.82,17.82-5.78,7.44-8.67,15.75-8.67,24.92l-27.75-.23c0-12.33,4.05-23.94,12.14-34.84,8.09-10.9,19.35-19.77,33.77-26.61,14.42-6.84,31.11-10.26,50.07-10.26,17.88,0,33.65,2.93,47.3,8.8,13.65,5.86,24.36,14.66,32.15,26.39,7.78,11.73,11.68,26.46,11.68,44.2v117.95c0,8.42.65,17.14,1.96,26.16,1.31,9.02,3.2,16.46,5.67,22.33v2.71h-29.6c-1.85-5.41-3.28-12.21-4.28-20.41-1-8.19-1.5-15.97-1.5-23.34v-125.84Z"/>
    <path class="cls-3" d="M1985.44,946.84c0-6.62-1.74-13.15-5.2-19.62-3.47-6.46-9.98-12.4-19.54-17.82-9.56-5.41-23.67-10.07-42.32-13.98-18.5-3.76-34.27-8.42-47.3-13.98-13.03-5.56-22.94-12.7-29.72-21.42-6.79-8.72-10.18-19.77-10.18-33.15,0-12.18,3.54-23.26,10.64-33.26,7.09-10,17.27-18,30.53-24.02,13.26-6.01,28.91-9.02,46.95-9.02,19.27,0,35.81,3.16,49.61,9.47,13.8,6.31,24.4,14.96,31.8,25.93,7.4,10.98,11.1,23.45,11.1,37.44h-27.99c0-12.63-5.55-24.13-16.65-34.51s-27.06-15.56-47.87-15.56c-14.34,0-25.98,2.14-34.92,6.43-8.94,4.29-15.46,9.7-19.54,16.24-4.09,6.54-6.13,13.19-6.13,19.96,0,7.22,1.7,13.64,5.09,19.28,3.39,5.64,9.86,10.71,19.43,15.22,9.56,4.51,23.67,8.87,42.33,13.08,20.2,4.36,36.73,9.66,49.61,15.9,12.87,6.24,22.43,13.91,28.68,23,6.24,9.1,9.37,20.11,9.37,33.04s-3.82,25.22-11.45,35.52c-7.63,10.3-18.35,18.31-32.15,24.02-13.8,5.71-30.1,8.57-48.92,8.57-21.13,0-38.97-3.42-53.54-10.26-14.57-6.84-25.6-15.82-33.07-26.95-7.48-11.13-11.22-23.08-11.22-35.86h27.52c.92,12.78,5.05,22.82,12.38,30.11,7.32,7.29,16.22,12.48,26.71,15.56,10.48,3.08,20.89,4.62,31.22,4.62,14.18,0,26.06-2.06,35.62-6.2,9.56-4.13,16.8-9.55,21.74-16.24,4.93-6.69,7.4-13.87,7.4-21.54Z"/>
  </g>
</svg>