<?xml version="1.0" standalone="no"?>
<!DOCTYPE svg PUBLIC "-//W3C//DTD SVG 20010904//EN"
 "http://www.w3.org/TR/2001/REC-SVG-20010904/DTD/svg10.dtd">
<svg version="1.0" xmlns="http://www.w3.org/2000/svg"
 width="512.000000pt" height="512.000000pt" viewBox="0 0 512.000000 512.000000"
 preserveAspectRatio="xMidYMid meet">

<g transform="translate(0.000000,512.000000) scale(0.100000,-0.100000)"
fill="#000000" stroke="none">
<path d="M2505 5111 c-11 -5 -503 -339 -1094 -743 -874 -596 -1077 -740 -1092
-768 -18 -33 -19 -100 -19 -1758 0 -1707 0 -1723 20 -1762 13 -26 34 -47 61
-60 38 -20 54 -21 344 -18 291 3 305 4 332 24 63 47 54 -16 209 1416 79 733
144 1334 144 1336 0 3 2300 3 2300 0 0 -2 65 -603 144 -1336 155 -1432 146
-1369 209 -1416 27 -20 41 -21 332 -24 290 -3 306 -2 344 18 27 13 48 34 61
60 20 39 20 55 20 1761 0 1935 8 1760 -79 1823 -25 18 -514 352 -1085 741
-956 652 -1043 709 -1085 712 -25 1 -55 -1 -66 -6z m868 -876 l806 -550 -810
-3 c-445 -1 -1173 -1 -1618 0 l-809 3 807 551 c443 304 809 551 812 550 3 0
368 -248 812 -551z m1147 -1005 l0 -150 -1960 0 -1960 0 0 150 0 150 1960 0
1960 0 0 -150z m-3415 -482 c-3 -18 -61 -559 -130 -1203 -69 -643 -128 -1187
-131 -1207 l-6 -38 -119 0 -119 0 0 1240 0 1240 255 0 256 0 -6 -32z m3415
-1208 l0 -1240 -119 0 -120 0 -6 43 c-3 23 -62 564 -130 1202 -68 638 -127
1177 -130 1198 l-5 37 255 0 255 0 0 -1240z"/>
</g>
</svg>
