<?xml version="1.0" standalone="no"?>
<!DOCTYPE svg PUBLIC "-//W3C//DTD SVG 20010904//EN"
 "http://www.w3.org/TR/2001/REC-SVG-20010904/DTD/svg10.dtd">
<svg version="1.0" xmlns="http://www.w3.org/2000/svg"
 width="512.000000pt" height="512.000000pt" viewBox="0 0 512.000000 512.000000"
 preserveAspectRatio="xMidYMid meet">

<g transform="translate(0.000000,512.000000) scale(0.100000,-0.100000)"
fill="#000000" stroke="none">
<path d="M0 2560 l0 -2560 655 0 655 0 0 1900 0 1900 1250 0 1250 0 0 -1900 0
-1900 655 0 655 0 0 2560 0 2560 -2560 0 -2560 0 0 -2560z m890 2246 c-8 -7
-144 -110 -302 -229 l-288 -216 0 230 0 229 302 0 c255 0 300 -2 288 -14z
m2410 0 c-8 -7 -178 -136 -377 -286 l-363 -272 -362 272 c-200 150 -370 279
-378 286 -12 12 105 14 740 14 635 0 752 -2 740 -14z m1520 -211 c0 -124 -3
-225 -6 -225 -5 0 -565 420 -588 441 -6 5 121 9 292 9 l302 0 0 -225z m-3019
-155 l424 -325 -437 -3 c-240 -1 -634 -1 -876 0 l-440 3 440 332 c269 203 445
330 453 325 6 -4 203 -153 436 -332z m2241 134 c145 -110 341 -259 436 -330
l172 -129 -434 -3 c-239 -1 -634 -1 -878 0 l-443 3 435 333 c239 183 437 331
441 330 5 -2 126 -93 271 -204z m-3042 -1176 c0 -221 -4 -398 -8 -392 -5 5
-147 176 -317 379 -169 204 -317 380 -328 393 l-20 22 336 0 337 0 0 -402z
m3758 385 c-8 -10 -151 -184 -318 -388 -166 -203 -306 -374 -311 -379 -5 -6
-9 154 -9 387 l0 397 327 0 c310 0 325 -1 311 -17z m60 -1625 l-3 -413 -338
400 c-185 219 -336 403 -335 407 2 5 154 193 338 418 l335 409 3 -404 c1 -222
1 -589 0 -817z m-4159 779 c295 -354 322 -389 309 -405 -8 -9 -160 -186 -338
-392 -178 -206 -325 -377 -327 -379 -1 -2 -3 358 -3 800 1 761 2 803 18 784 9
-12 163 -195 341 -408z m341 -1603 l0 -765 -325 388 c-179 213 -325 391 -325
394 0 7 640 749 646 749 2 0 4 -345 4 -766z m3464 363 c157 -186 286 -342 286
-345 0 -5 -599 -743 -626 -771 -2 -2 -4 339 -4 758 l0 762 29 -33 c15 -18 157
-185 315 -371z m356 -1072 l0 -325 -266 0 c-146 0 -264 4 -262 8 4 10 521 642
525 642 2 0 3 -146 3 -325z m-4250 -10 c128 -154 240 -288 248 -297 14 -17 1
-18 -251 -18 l-267 0 0 317 c0 310 0 317 19 298 10 -11 123 -146 251 -300z"/>
</g>
</svg>
